# xmcd
#
# Track frame offsets:
#	150
#	15052
#	35012
#	56437
#	66852
#	77195
#	94155
#	109032
#	122797
#	134405
#	148922
#	161090
#	181545
#
# Disc length: 2595 seconds
#
# Revision: 0
# Processed by: cddbd v1.5PL3 Copyright (c) Steve Scherf et al.
# Submitted via: dBpowerAMP V4.0
#
DISCID=ab0a210d
DTITLE=Various Artist - The Legend Of Old Blue Goose
DYEAR=1900
DGENRE=Blues
TTITLE0=Blue Goose Blues
TTITLE1=Jughead Blues
TTITLE2=Look Here Baby
TTITLE3=Don't Sell It, Don't Give It Away
TTITLE4=You gonna Need My Help SOmeday
TTITLE5=Muscat Hill Blues
TTITLE6=Kid West Blues
TTITLE7=Alcohol Blues
TTITLE8=Black Ace Blues
TTITLE9=Find Yourself A Job
TTITLE10=Mr. Crump BLues
TTITLE11=Don't Leave Me Here (I'm Alabama Bound)
TTITLE12=Flying Crow Blues
EXTD=
EXTT0=
EXTT1=
EXTT2=
EXTT3=
EXTT4=
EXTT5=
EXTT6=
EXTT7=
EXTT8=
EXTT9=
EXTT10=
EXTT11=
EXTT12=
PLAYORDER=
